<svg xmlns="http://www.w3.org/2000/svg" viewBox="0 0 500 500"><g id="freepik--background-complete--inject-194"><g><g><g><path d="M443.92,330.068h-180.746c-3.232,0-5.862-2.63-5.862-5.862V60.932c0-3.232,2.63-5.862,5.862-5.862h180.746c3.232,0,5.862,2.629,5.862,5.862V324.205c0,3.233-2.63,5.862-5.862,5.862ZM263.174,55.32c-3.095,0-5.612,2.518-5.612,5.612V324.205c0,3.095,2.518,5.612,5.612,5.612h180.746c3.095,0,5.612-2.517,5.612-5.612V60.932c0-3.094-2.518-5.612-5.612-5.612h-180.746Z" style="fill:#e0e0e0;"></path><path d="M235.493,330.068H54.746c-3.232,0-5.862-2.63-5.862-5.862V60.932c0-3.232,2.629-5.862,5.862-5.862H235.493c3.232,0,5.862,2.629,5.862,5.862V324.205c0,3.233-2.63,5.862-5.862,5.862ZM54.746,55.32c-3.094,0-5.612,2.518-5.612,5.612V324.205c0,3.095,2.518,5.612,5.612,5.612H235.493c3.095,0,5.612-2.517,5.612-5.612V60.932c0-3.094-2.518-5.612-5.612-5.612H54.746Z" style="fill:#e0e0e0;"></path></g><rect x="0" y="391.137" width="500" height=".25" style="fill:#e0e0e0;"></rect></g><rect x="51.672" y="405.402" width="16.06" height=".25" style="fill:#e0e0e0;"></rect><rect x="170.352" y="402.692" width="53.53" height=".25" style="fill:#e0e0e0;"></rect><rect x="68.732" y="414.692" width="36.25" height=".25" style="fill:#e0e0e0;"></rect><rect x="378.352" y="402.562" width="43.19" height=".25" style="fill:#e0e0e0;"></rect><rect x="430.452" y="402.562" width="6.33" height=".25" style="fill:#e0e0e0;"></rect><rect x="316.212" y="408.792" width="53.89" height=".25" style="fill:#e0e0e0;"></rect></g><path d="M413.379,358.504c-2.104-1.59-5.174-1.77-7.45-.437-3.021-6.104-11.438-8.798-17.441-5.582-1.566-6.577-8.047-11.633-14.807-11.552-6.761,.081-13.118,5.292-14.525,11.905-.223,1.051-.372,2.202-1.123,2.97-1.221,1.247-3.26,.829-5,.693-5.475-.427-10.985,3.417-12.473,8.703l75.401-.274c.66-2.553-.476-4.836-2.58-6.426Z" style="fill:#ebebeb;"></path><path d="M294.736,164.255c-1.456-1.1-3.579-1.224-5.154-.302-2.09-4.223-7.913-6.086-12.066-3.861-1.083-4.55-5.567-8.048-10.244-7.991-4.677,.056-9.075,3.661-10.048,8.236-.155,.727-.257,1.524-.777,2.055-.845,.863-2.255,.573-3.459,.479-3.788-.296-7.599,2.364-8.629,6.021l52.162-.19c.457-1.766-.329-3.346-1.785-4.445Z" style="fill:#ebebeb;"></path><path d="M163.397,391.786c-2.104-1.59-5.174-1.77-7.45-.437-3.021-6.104-11.438-8.798-17.441-5.582-1.566-6.577-8.047-11.633-14.807-11.552-6.761,.081-13.118,5.291-14.525,11.905-.223,1.051-.372,2.202-1.123,2.97-1.221,1.247-3.26,.829-5,.693-5.475-.427-10.985,3.417-12.474,8.703l75.401-.274c.66-2.553-.476-4.836-2.58-6.426Z" style="fill:#ebebeb;"></path><path d="M82.125,248.636c-1.202-.908-2.955-1.011-4.255-.249-1.725-3.486-6.532-5.024-9.961-3.188-.894-3.756-4.595-6.644-8.456-6.597-3.861,.046-7.491,3.022-8.295,6.799-.128,.6-.212,1.258-.642,1.696-.697,.712-1.862,.473-2.856,.396-3.127-.244-6.273,1.951-7.124,4.97l43.061-.157c.377-1.458-.272-2.762-1.474-3.67Z" style="fill:#ebebeb;"></path><path d="M456.486,253.437c-1.202-.908-2.955-1.011-4.255-.25-1.725-3.486-6.532-5.024-9.96-3.188-.894-3.756-4.595-6.644-8.456-6.597-3.861,.046-7.491,3.022-8.295,6.799-.128,.6-.212,1.258-.641,1.696-.697,.712-1.862,.473-2.856,.396-3.127-.244-6.273,1.951-7.123,4.97l43.061-.157c.377-1.458-.272-2.762-1.474-3.67Z" style="fill:#ebebeb;"></path><path d="M141.384,170.24c-2.433-1.838-5.983-2.047-8.614-.505-3.493-7.058-13.226-10.173-20.167-6.454-1.811-7.605-9.304-13.451-17.122-13.357-7.818,.094-15.168,6.119-16.796,13.766-.258,1.215-.43,2.547-1.299,3.434-1.412,1.442-3.77,.958-5.782,.801-6.331-.494-12.701,3.951-14.423,10.063l87.187-.317c.764-2.952-.551-5.592-2.984-7.43Z" style="fill:#ebebeb;"></path><path d="M422.751,203.396c-2.433-1.838-5.983-2.047-8.614-.505-3.493-7.058-13.226-10.173-20.167-6.454-1.811-7.605-9.304-13.451-17.122-13.357-7.818,.094-15.168,6.119-16.796,13.766-.258,1.215-.43,2.547-1.299,3.434-1.412,1.442-3.769,.958-5.782,.801-6.331-.494-12.701,3.951-14.423,10.063l87.187-.317c.764-2.952-.551-5.592-2.984-7.43Z" style="fill:#ebebeb;"></path><path d="M258.363,84.987c-2.104-1.59-5.174-1.77-7.45-.437-3.021-6.104-11.438-8.798-17.441-5.582-1.566-6.577-8.047-11.633-14.807-11.552-6.761,.081-13.118,5.291-14.525,11.905-.223,1.051-.372,2.202-1.123,2.97-1.221,1.247-3.26,.829-5,.693-5.475-.427-10.985,3.417-12.474,8.703l75.401-.274c.66-2.553-.476-4.836-2.58-6.426Z" style="fill:#ebebeb;"></path></g><g id="freepik--Shadow--inject-194"><path d="M395.579,456.517c0,6.421-65.178,11.627-145.579,11.627s-145.579-5.206-145.579-11.627,65.178-11.627,145.579-11.627,145.579,5.206,145.579,11.627Z" style="fill:#f5f5f5;"></path></g><g id="freepik--Ghost--inject-194"><g><path d="M90.81,280.778s57.282-50.248,67.473-91.992c10.192-41.744,7.934-74.777,43.824-77.143,35.89-2.366,40.381,40.571,49.482,54.518,9.101,13.947,22.578,50.527,112.914,65.271,0,0,4.537,22.189-5.843,27.793-10.38,5.604-15.164-5.311-20.117,14.883s-14.944,13.846-15.511,30.008c-.566,16.161,43.215,40.23,39.548,67.773-3.667,27.543-8.666,10.919-15.476,26.476-6.81,15.557-8.77,21.515-27.894,18.203-19.123-3.312,1.541,22.975-26.395,17.81-27.936-5.165-41.536-31.383-41.536-31.383l8.316,24.415s-21.616,1.81-39.815-12.633c-18.199-14.444-6.89-17.729-21.342-26.43-14.451-8.701-34.969-22.216-36.937-43.158s-.293-25.544-3.004-26.114c-.618-.13-1.163,.087-1.928,.539-12.042,7.105-27.251,5.656-37.89-3.417-.108-.092-.216-.184-.326-.277-10.964-9.303-8.682,.328-21.653-4.552-12.971-4.88-5.892-30.59-5.892-30.59Z" style="fill:#72BBFF;"></path><path d="M90.81,280.778s57.282-50.248,67.473-91.992c10.192-41.744,7.934-74.777,43.824-77.143,35.89-2.366,40.381,40.571,49.482,54.518,9.101,13.947,22.578,50.527,112.914,65.271,0,0,4.537,22.189-5.843,27.793-10.38,5.604-15.164-5.311-20.117,14.883s-14.944,13.846-15.511,30.008c-.566,16.161,43.215,40.23,39.548,67.773-3.667,27.543-8.666,10.919-15.476,26.476-6.81,15.557-8.77,21.515-27.894,18.203-19.123-3.312,1.541,22.975-26.395,17.81-27.936-5.165-41.536-31.383-41.536-31.383l8.316,24.415s-21.616,1.81-39.815-12.633c-18.199-14.444-6.89-17.729-21.342-26.43-14.451-8.701-34.969-22.216-36.937-43.158s-.293-25.544-3.004-26.114c-.618-.13-1.163,.087-1.928,.539-12.042,7.105-27.251,5.656-37.89-3.417-.108-.092-.216-.184-.326-.277-10.964-9.303-8.682,.328-21.653-4.552-12.971-4.88-5.892-30.59-5.892-30.59Z" style="fill:#fff; opacity:.6;"></path><path d="M159.915,204.155s-39.083,57.614-25.77,53.036c13.313-4.579,40.991-41.644,40.991-41.644,0,0,2.418,58.715,7.008,55.708,4.59-3.008,13.977-33.982,13.977-33.982,0,0-5.768,49.328,2.83,78.376,8.598,29.048,10.29,23.7,10.29,23.7,0,0-9.175-55.761,.045-72.86s34.613,64.573,36.444,63.963-17.416-62.421-9.591-70.2c7.825-7.78,39.784,48.06,49.57,52.798,9.787,4.737-13.024-38.452-13.024-38.452l30.453,25.69s-33.687-31.752-30.668-45.737c3.019-13.984,44.363,18.193,35.473,9.309-8.889-8.885-14.929-26.045-14.929-26.045,0,0,64.124,.996,53.928-2.283s-62.892-18.01-80.451-37.065c-17.559-19.055-31.208-72.725-45.571-79.15-14.363-6.425-41.326-11.336-49.276,31.753-6.903,37.415-5.184,30.414-11.728,53.088Z" style="fill:#fff; opacity:.6;"></path><g style="opacity:.3;"><path d="M154.628,297.611c-5.171,4.536,.101-17.202,.101-17.202l-23.08,42.579c8.257,2.195,17.232,1.162,24.921-3.374,.765-.452,1.309-.669,1.928-.539,0,0,14.628-71.002,13.831-72.224-.797-1.222-12.53,46.223-17.701,50.759Z"></path><path d="M188.972,382.337c3.269,2.218,6.497,4.222,9.467,6.011,4.302,2.59,6.314,4.7,7.508,6.767h0l-25.886-56.305c-1.589,15.566,3.656,31.771,8.911,43.527Z"></path><path d="M283.265,431.635c-15.135-23.047-69.002-107.4-73.039-146.588-.121-1.174-.847,31.056,19.148,76.383,9.209,20.876,14.209,29.127,21.906,41.565h0s10.501,20.218,31.985,28.639Z"></path><path d="M280.906,374.07c2.052,19.15,18.573,39.823,28.57,50.756,.561-5.053,.949-9.779,9.735-8.257,2.123,.368,4.004,.602,5.733,.741-17.516-14.024-44.038-43.24-44.038-43.24Z"></path><path d="M244.365,268.674c-.04,.068,.109,.477,.394,1.123-.206-.872-.316-1.256-.394-1.123Z"></path><path d="M345.709,401.555c-14.5-12.953-39.593-35.997-52.09-51.174-16.872-20.491-45.245-72.371-48.86-80.584,1.252,5.293,6.178,29.218,30.646,73.591,20.845,37.8,50.779,59.075,65.369,67.787,1.704-2.472,3.198-5.668,4.934-9.62Z"></path><path d="M313.089,353.068c5.813,14.729,27.974,35.474,35.537,42.292,4.006-6.804,7.347-3.726,10.131-8.291l-45.667-34.001Z"></path><path d="M361.576,378.197c.345-1.798,.68-3.872,1.004-6.307,.114-.856,.182-1.709,.207-2.559-18.212-13.113-51.142-47.849-51.142-47.849,8.861,26.137,36.356,47.462,49.931,56.714Z"></path><path d="M283.07,256.776s21.056,39.483,45.8,60.074c-3.611-4.646-5.971-8.914-5.838-12.734,.07-2.012,.288-3.673,.622-5.082-13.178-11.389-32.756-29.41-40.585-42.258Z"></path><path d="M337.091,278.865c.514-1.417,1.008-2.949,1.451-4.757,.391-1.592,.78-2.971,1.171-4.199l-29.983-14.557c5.33,5.55,14.676,15.654,27.36,23.513Z"></path><path d="M237.455,245.245c21.887,9.233,42.601-5.711,42.601-5.711-38.845,10.36-75.387-17.779-75.387-17.779,0,0,10.899,14.256,32.785,23.489Z"></path></g><path d="M192.104,139.442c1.73-.888,2.574-.903,3.85-.57,1.11,.289,1.995,1.143,2.629,2.099,1.174,1.773,1.63,3.949,1.609,6.076-.021,2.126-.491,4.222-1.043,6.276-.512,1.909-1.123,3.849-2.359,5.391-1.867,2.329-4.64,4.085-7.609,4.388-1.623,.166-3.664-.579-4.972-1.553-.963-.718-1.555-1.847-1.844-3.013-.467-1.884-.193-3.941,.749-5.637,.909-1.636,2.368-2.882,3.592-4.298,0,0,1.005-1.732,1.711-3.783,.705-2.051,1.039-4.015,3.688-5.374Z" style="fill:#263238;"></path><path d="M216.159,137.779c-1.836-.641-2.674-.54-3.892-.035-1.059,.439-1.819,1.407-2.315,2.441-.919,1.917-1.071,4.136-.757,6.239,.314,2.103,1.068,4.114,1.897,6.072,.77,1.82,1.642,3.658,3.079,5.015,2.17,2.049,4.492,3.084,7.475,2.976,1.63-.059,4.216-.754,5.377-1.9,.855-.843,1.286-2.044,1.411-3.238,.203-1.93-.351-3.93-1.518-5.481-1.125-1.496-2.742-2.528-4.15-3.762,0,0-1.234-1.577-2.215-3.512-.981-1.934-1.582-3.834-4.393-4.816Z" style="fill:#263238;"></path><path d="M219.927,181.824c-.448-2.041-1.705-4.849-2.759-7.188-3.66-8.123-14.549-9.386-19.637-2.072-.162,.233-.32,.47-.471,.71-2.198,3.474-3.329,7.532-3.872,11.606-.237,1.781-.36,3.64,.247,5.33s2.114,3.173,3.909,3.235c2.139,.074,3.806-1.739,5.21-3.355s3.248-3.331,5.36-2.978c2.415,.404,3.889,2.843,6.06,3.976,3.828,1.998,5.567-.654,6.422-2.766,.855-2.112,.019-4.273-.469-6.498Z" style="fill:#263238;"></path><path d="M189.283,191.803c-.078,.371,2.416,7.225,9.813,6.214,0,0-8.406,3.365-9.891-5.843" style="opacity:.3;"></path><path d="M213.778,195.23c.226,.305,7.006,2.993,11.164-3.208,0,0-3.068,8.519-10.938,3.513" style="opacity:.3;"></path><path d="M217.755,163.042c.226,.305,7.006,2.993,11.164-3.208,0,0-3.068,8.519-10.938,3.513" style="opacity:.3;"></path><path d="M185.843,164.619c.226,.305,7.006,2.993,11.164-3.208,0,0-3.068,8.519-10.938,3.513" style="opacity:.3;"></path><path d="M160.162,260.408l12.134-34.928s-.052,22.079-12.134,34.928Z" style="opacity:.3;"></path><path d="M117.068,303.401l22.603-37.483s-5.335,25.375-22.603,37.483Z" style="opacity:.3;"></path><path d="M248.144,348.023s7.798,38.522,36.927,59.147l-36.927-59.147Z" style="fill:#fff; opacity:.6;"></path><path d="M296.489,323.676l16.112,16.216s-2.492-13.352-16.112-16.216Z" style="fill:#fff; opacity:.6;"></path><path d="M214.348,360.077s3.864,33.874,16.278,45.129c12.414,11.255-16.278-45.129-16.278-45.129Z" style="fill:#fff; opacity:.6;"></path></g></g><g id="freepik--Bats--inject-194"><path d="M363.729,280.069c4.059-3.387,13.815-9.837,24.335-4.299,.368,.189,.582,.585,.537,.997-.179,1.582,.18,5.723,6.858,9.043,.538-.65,1.159-1.228,1.846-1.72l-.299-.491c-.815-1.19-1.915-1.889-1.163-3.094,1.375-.289,2.788,.281,3.577,1.443,.179,.252,.319,.529,.415,.823,.563-.15,1.16-.109,1.698,.117,.157-.171,.333-.323,.525-.452,1.157-.791,2.675-.814,3.855-.058,.283,1.349-1,1.661-2.194,2.431l-.088,.068c.555,.796,.994,1.667,1.306,2.586,7.293-.735,9.024-4.423,9.433-5.924,.099-.403,.44-.701,.853-.744,11.815-1.359,18.621,8.183,21.136,12.807,.265,.492,.081,1.106-.411,1.371-.251,.135-.547,.158-.815,.064-4.918-1.655-7.286-.082-8.142,.939-.319,.367-.856,.45-1.271,.198-6.563-3.967-10.814-.637-12.119,.692-.295,.288-.734,.369-1.112,.204-4.075-1.701-6.833-1.777-8.564-1.419-1.389,2.233-3.623,3.81-6.193,4.37-2.154-1.425-3.653-3.647-4.169-6.177-1.44-1.009-4.05-2.075-8.764-1.961-.41,.02-.791-.21-.966-.581-.741-1.714-3.499-6.363-11.058-5.031-.478,.085-.947-.187-1.112-.643-.477-1.261-2.116-3.6-7.254-3.814-.559-.013-1.002-.476-.989-1.035,.006-.268,.119-.523,.313-.709Z" style="fill:#263238;"></path><path d="M81.284,108.335c2.524-5.201,9.348-16.019,22.326-15.228,.452,.023,.843,.322,.983,.752,.533,1.657,2.753,5.624,10.903,5.931,.244-.891,.603-1.746,1.066-2.544l-.519-.354c-1.347-.82-2.758-1.022-2.551-2.562,1.241-.906,2.906-.973,4.215-.17,.292,.171,.556,.384,.784,.634,.494-.403,1.108-.63,1.745-.647,.079-.241,.187-.471,.32-.687,.798-1.309,2.3-2.014,3.817-1.791,.888,1.217-.25,2.105-1.095,3.41l-.057,.107c.911,.544,1.741,1.215,2.465,1.99,6.94-4.012,7.007-8.467,6.74-10.147-.083-.446,.124-.897,.516-1.125,11.167-6.668,22.242-.215,26.829,3.263,.485,.372,.578,1.066,.206,1.552-.189,.247-.474,.403-.784,.43-5.647,.561-7.3,3.195-7.695,4.598-.153,.509-.651,.834-1.178,.769-8.326-1.003-11.066,4.227-11.77,6.14-.164,.42-.566,.698-1.017,.704-4.827,.137-7.611,1.301-9.176,2.436-.381,2.851-1.899,5.427-4.208,7.141-2.788-.452-5.282-1.992-6.934-4.283-1.889-.358-4.97-.247-9.619,1.986-.4,.204-.883,.147-1.224-.145-1.51-1.376-6.35-4.77-13.285-.043-.438,.299-1.029,.24-1.398-.141-1.043-1.042-3.728-2.637-8.947-.54-.563,.239-1.212-.024-1.451-.587-.115-.27-.117-.575-.007-.847Z" style="fill:#263238;"></path><path d="M51.579,341.576c3.055-2.046,10.275-5.796,17.147-1.196,.241,.157,.36,.447,.298,.729-.239,1.081-.293,3.972,4.084,6.756,.42-.411,.891-.765,1.402-1.055l-.171-.361c-.477-.883-1.186-1.447-.578-2.225,.972-.099,1.908,.398,2.369,1.26,.105,.187,.182,.39,.227,.6,.401-.062,.81,.01,1.166,.205,.121-.107,.254-.199,.396-.275,.858-.463,1.91-.367,2.671,.242,.097,.954-.813,1.076-1.696,1.521l-.066,.041c.325,.591,.566,1.226,.715,1.884,5.099,.024,6.565-2.4,6.958-3.409,.098-.272,.356-.453,.644-.452,8.272-.077,12.283,7.021,13.685,10.403,.147,.36-.025,.771-.385,.918-.183,.075-.39,.069-.569-.015-3.281-1.504-5.034-.589-5.701,.055-.248,.23-.625,.249-.894,.044-4.25-3.223-7.434-1.231-8.434-.406-.225,.178-.535,.201-.784,.06-2.695-1.474-4.597-1.729-5.82-1.608-1.124,1.443-2.784,2.371-4.603,2.57-1.386-1.143-2.261-2.789-2.433-4.577-.922-.803-2.65-1.731-5.919-1.997-.285-.016-.532-.203-.625-.473-.387-1.24-1.956-4.657-7.282-4.288-.337,.024-.642-.199-.722-.526-.238-.907-1.201-2.645-4.739-3.168-.386-.05-.658-.402-.609-.788,.024-.185,.12-.353,.268-.467Z" style="fill:#263238;"></path></g><g id="freepik--Moon--inject-194"><g><g><circle cx="360.46" cy="107.694" r="56.91" transform="translate(29.425 286.427) rotate(-45)" style="fill:#72BBFF;"></circle><circle cx="360.46" cy="107.694" r="56.91" transform="translate(29.425 286.427) rotate(-45)" style="fill:#fff; opacity:.6;"></circle><g style="opacity:.3;"><path d="M311.416,90.709c0-.661,10.078-17.842,13.877-20.155,3.8-2.313,11.399-3.469,11.399-3.469,0,0,.826-1.322,1.322-1.652,.496-.331,5.948,0,5.948,0,0,0,6.608-.331,6.773-.826s2.313-2.643,2.643-3.469c.33-.826,4.13-4.461,4.626-4.791,.496-.331,2.809,0,2.809,0,0,0,5.287,4.956,4.626,5.452-.661,.496-.496,3.965,1.487,3.635,1.982-.331,6.278-.165,6.278-.165l-3.304,10.904s-3.469,3.635-4.626,3.635-3.139,2.478-3.635,2.148c-.496-.331-3.8-.165-6.443-1.322-2.643-1.157-6.443-2.643-7.269-3.304-.826-.661-3.469-1.983-4.461-1.983s-9.912-.661-9.912-.661c0,0-5.287,2.643-5.947,3.139-.661,.496-.496,4.791,0,4.791s5.452,3.8,4.791,4.13c-.661,.33-1.487,7.765-1.652,8.426-.165,.661-2.808,5.122-2.808,5.122,0,0-6.278,5.287-6.278,5.948s5.287,3.8,.991,3.469-2.974-.165-4.791-1.157c-1.817-.991-3.139-.991-3.139-2.643s-1.156-.496-1.156-.496c0,0,1.156,6.608,.496,6.939-.661,.33,.496,3.139-1.652,2.643-2.148-.496-3.635-.331-4.13-1.156s1.487-2.809,.826-5.452c-.661-2.643,0-8.26,.165-9.747,.165-1.487,2.808-4.956,2.808-4.956l-.661-2.974Z" style="fill:#72BBFF;"></path><path d="M332.067,101.117c-1.156,.165-3.8,2.313-4.13,2.809-.33,.496-.165,2.809,0,3.469,.165,.661,.8,3.469,1.97,3.139,1.169-.33,2.987,.55,3.813,.027,.826-.523,3.965-.853,3.469-1.679-.496-.826-.165-4.461-1.487-5.617-1.322-1.156-3.635-2.148-3.635-2.148Z" style="fill:#72BBFF;"></path><path d="M351.561,100.291s1.322-.826,1.322-1.487,.826-1.652,.826-1.652c0,0-.995-1.679-2.148-1.487-2.974,.496-3.635,2.305-3.635,2.305l3.635,2.321Z" style="fill:#72BBFF;"></path><path d="M335.206,85.626v2.935s-.33,2.643,.826,2.313c1.156-.33,3.673,.473,3.965,.029,1.322-2.011,1.817-4.247,1.322-5.277-.496-1.03-1.672-2.682-2.984-2.847l-3.129,2.847Z" style="fill:#72BBFF;"></path><path d="M335.692,81.326s1.288-.134,.978-1.069,1.379-1.337,0-1.871c-1.379-.535-1.914-1.337-2.849-1.069-.936,.267-1.604,2.219-2.139,1.978-.535-.241-.535,1.497,0,2.032s3.271,1.871,3.306,1.47c.035-.401,.704-1.47,.704-1.47Z" style="fill:#72BBFF;"></path><path d="M339.054,79.387c-.181,.136-.941,1.537-.719,1.537s1.352,.949,1.623,.949,.949,.045,1.039-.226c.09-.271,.749-1.398,.51-1.581-.239-.182-1.323-1.176-1.323-1.176l-1.13,.497Z" style="fill:#72BBFF;"></path><path d="M385.143,64.347c-.407-.542-3.661,.813-4.746,.949-1.085,.136-3.254,5.695-3.797,5.695s.271,2.712,.814,3.932c.542,1.22,2.034,4.863,2.441,5.143,.407,.281,5.288,2.803,5.288,2.803,0,0,5.966,1.545,6.78,.867,.814-.678,5.153-.739,5.153-1.861s-.271-3.494,0-4.613,.678-2.837,0-3.199c-.678-.361-3.932-2.938-4.339-3.209s-2.983-2.712-3.661-3.526c-.678-.813-3.932-2.983-3.932-2.983Z" style="fill:#72BBFF;"></path><path d="M405.211,80.066c-1.085,.009-2.847-.126-3.39,1.23-.542,1.356,1.356,5.396,1.22,5.613s-.195,3.976-1.318,4.131c-1.123,.154-2.478,1.646-1.529,2.324,.949,.678,5.017,3.525,5.017,3.525l2.983,1.081s1.627,1.79,1.627,2.321,1.763,6.361,1.763,6.361c0,0,.814-2.305,1.085-2.712s-.542-5.97-.542-5.97c0,0-1.356-8.945-1.491-9.488-.136-.542-4.336-6.607-4.336-6.607l-1.088-1.809Z" style="fill:#72BBFF;"></path><path d="M404.669,112.358c-.152-.022-.378,.054-.651,.196-1.431,.746-4.144,3.329-4.144,3.329,0,0,1.763,6.373,2.397,5.966,.635-.407,5.787-2.441,5.787-2.441,0,0,1.356-1.341,1.22-2.298-.136-.957,.561-1.783,.01-3.404-.552-1.621-.281-2.977-1.772-2.977s-2.847,1.627-2.847,1.627Z" style="fill:#72BBFF;"></path><path d="M395.991,117.645c-.678,.804-2.169,2.296-2.169,2.296,0,0,1.563,2.098,2.169,1.491,1.627-1.627,1.898-2.305,1.898-2.712l-1.898-1.075Z" style="fill:#72BBFF;"></path><path d="M399.874,123.213c-.9,.388-3.341,1.202-4.019,1.202s-2.305,.407-2.034,1.22c.271,.814-.06,4.203-.03,4.746,.03,.542,1.522,2.576,2.064,2.441,.542-.136,2.034,1.22,2.034,1.22,0,0-4.068,3.661-4.068,4.068s-2.034,3.39-2.034,3.39v3.526s8.173-6.237,8.087-6.78c-.087-.542,3.574-5.559,3.574-5.559l2.17-4.203-.929-3.39-4.815-1.88Z" style="fill:#72BBFF;"></path><path d="M321.01,125.109v7.06l3.53,5.043s3.866,3.194,4.539,3.362,4.797,1.513,5.172,.84c.375-.672,4.855-2.353,4.044-3.194s-2.427-4.707-3.132-5.547-3.024-2.858-3.881-3.362-5.396-1.345-5.396-1.345c0,0-1.681-1.009-1.513-1.849s.672-3.287-.672-2.904c-1.345,.383-2.69,.887-2.69,.887v1.008Z" style="fill:#72BBFF;"></path><path d="M317.48,117.645c-.672,.236-2.69,2.253-2.185,2.758,.504,.504,2.017,1.755,2.185,1.466s0,0,0,0c1.513-2.259,1.177-3.147,1.177-3.147l-1.177-1.077Z" style="fill:#72BBFF;"></path></g></g><path d="M360.46,164.605c22.918,0,42.658-13.554,51.677-33.076-8.559,11.685-26.587,29.151-56.859,26.65-44.791-3.7-51.594-47.101-51.645-47.433v.012l.989,7.935c5.125,26.166,28.171,45.911,55.838,45.911Z" style="fill:#72BBFF; opacity:.4;"></path></g></g></svg>
